# xmcd
#
# Track frame offsets:
#	150
#	23982
#	48455
#	79317
#	96747
#	128627
#	154197
#	184457
#	222297
#	253272
#
# Disc length: 3859 seconds
#
# Revision: 1
# Processed by: cddbd v1.5.2PL0 Copyright (c) Steve Scherf et al.
# Submitted via: audiograbber 1.83.01
#
DISCID=950f110a
DTITLE=Various Artist - Star Funk Vol. 29
DYEAR=1996
DGENRE=Disco
TTITLE0=Tina Charles - I Love To Love (Love In London 12inch mix)
TTITLE1=Archie Bell - Anytime Is Right
TTITLE2=Kay-Gees - Cheek To Cheek
TTITLE3=Tavares - Whodunit
TTITLE4=Crown Heights Affair - Dreaming A Dream
TTITLE5=Lime - Take The Love
TTITLE6=Freddie James - Dance To The Beat
TTITLE7=Bumblebee Unlimited - Everybody Dance
TTITLE8=Goldie Alexander - Knocking Down Love
TTITLE9=Machine - Marisa
EXTD=
EXTT0=
EXTT1=
EXTT2=
EXTT3=
EXTT4=
EXTT5=
EXTT6=
EXTT7=
EXTT8=
EXTT9=
PLAYORDER=
